<?xml version="1.0" encoding="iso-8859-1"?>
<svg xmlns="http://www.w3.org/2000/svg" xmlns:xlink="http://www.w3.org/1999/xlink" version="1.1" viewBox="0 0 26 26" enable-background="new 0 0 26 26" width="512px" height="512px">
  <path d="M16.7,22.7l9-9c0.2-0.2,0.3-0.5,0.3-0.7c0-0.3-0.1-0.5-0.3-0.7l-9-9C16.5,3.1,16.3,3,16,3s-0.5,0.1-0.7,0.3l-1.4,1.4  c-0.4,0.4-0.4,1,0,1.4l4,4c0.3,0.3,0.1,0.9-0.4,0.9H1c-0.6,0-1,0.4-1,1v2c0,0.6,0.4,1,1,1h16.6c0.4,0,0.7,0.5,0.4,0.9l-4,4  c-0.4,0.4-0.4,1,0,1.4l1.4,1.4c0.2,0.2,0.4,0.3,0.7,0.3C16.3,23,16.5,22.9,16.7,22.7z" fill="#FFFFFF"/>
</svg>
